<?xml version="1.0" standalone="no"?>
<!DOCTYPE svg PUBLIC "-//W3C//DTD SVG 20010904//EN"
 "http://www.w3.org/TR/2001/REC-SVG-20010904/DTD/svg10.dtd">
<svg version="1.0" xmlns="http://www.w3.org/2000/svg"
 width="260.000000pt" height="260.000000pt" viewBox="0 0 260.000000 260.000000"
 preserveAspectRatio="xMidYMid meet">
<metadata>
Created by potrace 1.11, written by Peter Selinger 2001-2013
</metadata>
<g transform="translate(0.000000,260.000000) scale(0.100000,-0.100000)"
fill="#000000" stroke="none">
<path d="M1181 2519 c-382 -415 -648 -865 -820 -1389 -37 -110 -100 -350 -115
-435 -35 -194 -66 -488 -66 -628 0 -88 12 -81 17 10 5 94 37 221 80 323 47
112 174 303 190 287 2 -3 0 -22 -6 -43 -8 -33 -29 -170 -46 -304 -9 -73 -17
-345 -10 -338 4 4 9 27 10 50 13 187 88 363 214 498 l42 45 -7 -45 c-3 -25 -8
-52 -9 -60 -2 -8 -6 -44 -10 -80 -4 -36 -9 -78 -11 -95 -7 -52 -17 -320 -11
-315 3 3 8 30 12 60 45 376 397 621 778 541 163 -35 325 -152 408 -296 38 -66
79 -199 79 -258 0 -26 4 -47 9 -47 8 0 6 178 -4 260 -3 25 -8 76 -11 114 -4
38 -12 101 -19 140 -6 39 -10 73 -9 75 8 9 96 -99 139 -171 67 -113 112 -257
117 -376 1 -23 5 -42 10 -42 8 0 3 202 -7 280 -2 19 -7 65 -10 102 -3 37 -14
120 -25 184 -10 65 -18 120 -16 122 8 7 126 -166 159 -232 62 -125 107 -300
107 -412 0 -24 4 -44 8 -44 23 0 -15 467 -53 660 -9 41 -17 86 -20 100 -16 82
-64 256 -110 395 -136 411 -341 792 -610 1130 -113 142 -271 315 -288 315 -7
0 -45 -37 -86 -81z m219 -74 c-1 -5 -30 -41 -66 -80 l-65 -70 -69 74 c-39 41
-68 77 -65 79 3 3 33 36 67 74 l62 69 68 -68 c37 -37 68 -72 68 -78z m-211
-84 c34 -39 62 -73 62 -78 0 -11 -114 -153 -122 -153 -11 0 -134 143 -131 152
4 14 116 147 123 148 4 0 34 -31 68 -69z m342 -68 c11 -20 6 -29 -51 -90 -35
-37 -67 -69 -70 -71 -4 -2 -22 16 -41 40 -18 24 -46 58 -63 75 l-30 33 24 27
c14 16 45 50 70 76 l45 48 52 -58 c29 -32 57 -68 64 -80z m-195 -101 l62 -76
-61 -78 c-33 -43 -63 -80 -66 -83 -12 -7 -132 156 -124 168 17 27 117 147 122
147 3 -1 34 -35 67 -78z m-310 26 c21 -24 52 -57 68 -75 l28 -32 -45 -58
c-115 -150 -282 -436 -370 -633 -9 -19 -25 -57 -37 -83 -56 -128 -124 -332
-170 -510 -23 -91 -34 -115 -63 -145 -80 -85 -190 -287 -217 -399 -6 -29 -14
-53 -16 -53 -4 0 4 124 11 178 32 218 47 303 71 407 87 375 253 781 448 1094
82 132 235 351 245 351 4 0 25 -19 47 -42z m566 0 c63 -77 215 -310 286 -440
197 -357 351 -790 408 -1147 3 -18 8 -43 10 -55 2 -11 7 -41 10 -66 3 -25 7
-56 10 -70 6 -39 14 -207 8 -185 -39 146 -115 291 -222 423 -39 48 -48 68 -67
153 -27 114 -90 309 -147 454 -35 88 -161 354 -187 395 -6 8 -36 58 -67 110
-31 52 -92 146 -135 208 -76 108 -79 113 -64 135 21 30 108 125 116 126 4 1
22 -18 41 -41z m-392 -204 l60 -75 -64 -92 c-171 -250 -319 -544 -407 -812
-19 -55 -37 -102 -42 -104 -27 -11 -162 -108 -205 -146 l-50 -45 33 128 c86
332 232 668 420 967 80 128 179 264 188 258 5 -3 35 -38 67 -79z m288 -22
c151 -215 297 -483 390 -717 35 -89 119 -335 127 -375 11 -50 27 -118 32 -134
3 -13 -17 -1 -61 36 -37 30 -96 72 -131 93 -62 36 -65 39 -86 104 -93 285
-233 571 -406 826 -85 125 -85 106 0 212 27 34 54 60 58 57 4 -2 39 -48 77
-102z m-141 -180 c126 -189 225 -372 308 -572 44 -104 106 -282 101 -288 -3
-3 -28 5 -56 17 -69 30 -162 57 -240 72 -80 14 -255 18 -324 7 -28 -4 -67 -10
-86 -13 -52 -8 -167 -44 -226 -70 l-51 -23 14 47 c8 25 18 57 23 71 38 121
149 366 238 525 60 108 210 335 220 335 4 0 39 -49 79 -108z m98 -782 c85 -14
211 -53 276 -85 53 -27 55 -32 89 -180 11 -49 23 -98 26 -108 4 -12 -16 -3
-68 31 -40 27 -91 57 -113 67 -84 36 -167 64 -208 70 -23 3 -55 8 -71 11 -46
10 -187 6 -257 -6 -136 -23 -244 -68 -357 -146 -35 -24 -64 -44 -66 -44 -3 0
23 111 51 218 19 72 29 80 168 127 89 30 151 43 240 52 33 3 61 6 62 7 7 6
167 -5 228 -14z m-709 -167 c-8 -27 -24 -90 -36 -142 -21 -89 -26 -98 -84
-165 -89 -102 -142 -194 -187 -326 -21 -61 12 238 45 413 14 73 19 81 62 120
49 44 192 147 205 147 4 0 2 -21 -5 -47z m1184 -32 c60 -45 122 -105 131 -129
5 -12 13 -51 19 -85 5 -34 12 -71 14 -82 2 -11 7 -47 10 -80 4 -33 9 -76 11
-95 2 -19 6 -66 10 -105 l5 -70 -25 70 c-48 133 -115 243 -199 326 -28 28 -40
51 -52 100 -8 35 -24 98 -35 140 -10 41 -19 79 -19 83 0 9 79 -35 130 -73z
m-480 -16 c98 -17 248 -84 341 -151 59 -43 66 -52 73 -94 12 -74 35 -268 40
-335 l6 -70 -25 58 c-125 298 -432 458 -750 392 -119 -25 -228 -86 -321 -179
-79 -80 -154 -200 -154 -247 0 -11 -4 -19 -8 -19 -4 0 -5 33 -1 74 18 190 20
200 44 343 5 29 17 41 103 99 98 66 193 103 357 137 28 6 252 0 295 -8z"/>
</g>
</svg>
