<?xml version="1.0" encoding="UTF-8" standalone="no"?>
<!DOCTYPE svg PUBLIC "-//W3C//DTD SVG 1.1//EN"
    "http://www.w3.org/Graphics/SVG/1.1/DTD/svg11.dtd">
<svg version="1.1"
  baseProfile="full"
  xmlns="http://www.w3.org/2000/svg"
  xmlns:xlink="http://www.w3.org/1999/xlink"
  xmlns:ev="http://www.w3.org/2001/xml-events"
  width="100%" height="100%"
  viewBox="0 0 37 44"
>
  <g
    fill="none"
    width="38"
    height="56"
    stroke="black"
    stroke-width="1.5"
    stroke-miterlimit="10"
  >
    <path d="M1.17139 43.1938C1.17139 27.4605 7.45789 12.3232 18.7123 1" ></path>
    <path d="M18.7124 1C29.9668 12.3232 36.2533 27.4605 36.2533 43.1938" ></path>
    <path d="M16.3203 3.5625C26.8387 14.2301 32.7265 28.4139 32.7265 43.1937" ></path>
    <path d="M4.729 43.1937C4.729 28.4139 10.6168 14.2301 21.1352 3.5625" ></path>
    <path d="M14.0513 6.27417C23.7417 16.2565 29.1389 29.4569 29.1389 43.1937" ></path>
    <path d="M8.28589 43.1937C8.28589 29.4569 13.6831 16.2565 23.3735 6.27417" ></path>
    <path d="M8.28589 43.194C8.28589 37.592 12.9471 33.0627 18.7123
      33.0627C24.4774 33.0627 29.1387 37.592 29.1387 43.194" ></path>
    <path d="M4.729 43.1938C4.729 35.6847 10.9848 29.606 18.7126
      29.606C26.4404 29.606 32.6963 35.6847 32.6963 43.1938" ></path>
    <path d="M1.17139 43.1938C1.17139 33.7777 9.02184 26.1494 18.7122
      26.1494C28.4027 26.1494 36.2531 33.7777 36.2531 43.1938" ></path>
  </g>
</svg>
